<?xml version="1.0" encoding="UTF-8"?>
<!DOCTYPE svg PUBLIC "-//W3C//DTD SVG 1.1//EN" "http://www.w3.org/Graphics/SVG/1.1/DTD/svg11.dtd">
<svg xmlns="http://www.w3.org/2000/svg" version="1.1" width="512px" height="512px" style="shape-rendering:geometricPrecision; text-rendering:geometricPrecision; image-rendering:optimizeQuality; fill-rule:evenodd; clip-rule:evenodd" xmlns:xlink="http://www.w3.org/1999/xlink">
<g><path style="opacity:0.985" fill="#020100" d="M 511.5,22.5 C 511.5,85.5 511.5,148.5 511.5,211.5C 509.628,213.604 507.295,214.937 504.5,215.5C 501.042,214.892 498.542,212.892 497,209.5C 496.667,148.5 496.333,87.5 496,26.5C 495.535,25.0692 494.701,23.9025 493.5,23C 445.749,21.8378 397.915,21.3378 350,21.5C 302.665,21.5 255.499,21.8333 208.5,22.5C 206.496,23.6728 204.996,25.3395 204,27.5C 203.333,163.167 203.333,298.833 204,434.5C 205.076,437.079 206.909,438.746 209.5,439.5C 303.332,440.666 397.332,440.832 491.5,440C 493.57,439.052 495.07,437.552 496,435.5C 496.333,369.833 496.667,304.167 497,238.5C 498.913,235.72 501.413,234.053 504.5,233.5C 507.276,234.089 509.61,235.422 511.5,237.5C 511.5,304.833 511.5,372.167 511.5,439.5C 508.611,447.55 502.944,452.717 494.5,455C 454.5,455.333 414.5,455.667 374.5,456C 372.283,457.275 369.949,458.275 367.5,459C 276.516,474.108 185.516,489.108 94.5,504C 79.4556,506.734 69.6223,500.901 65,486.5C 43.4681,354.975 21.6347,223.642 -0.5,92.5C -0.5,87.1667 -0.5,81.8333 -0.5,76.5C 3.27271,68.2301 9.60604,63.0635 18.5,61C 39.9755,57.3374 61.4755,53.8374 83,50.5C 87.7592,49.9504 90.5925,51.9504 91.5,56.5C 91.6541,60.0254 90.3208,62.8587 87.5,65C 65.2085,68.925 42.8751,72.5917 20.5,76C 15.0552,78.1102 13.2219,81.9436 15,87.5C 36.8838,219.47 58.5505,351.47 80,483.5C 81.5293,487.031 84.196,489.031 88,489.5C 110.697,485.858 133.197,481.858 155.5,477.5C 200.528,470.606 245.528,463.606 290.5,456.5C 291.922,456.291 293.255,455.791 294.5,455C 265.169,454.5 235.835,454.333 206.5,454.5C 196.979,451.645 191.313,445.311 189.5,435.5C 189.5,433.833 189.5,432.167 189.5,430.5C 187.585,430.216 185.919,430.549 184.5,431.5C 176.268,432.205 168.268,433.539 160.5,435.5C 147.651,437.336 134.818,439.336 122,441.5C 117.402,441.15 115.236,438.65 115.5,434C 115.301,430.726 116.634,428.393 119.5,427C 133.812,424.304 148.145,421.804 162.5,419.5C 171.485,418.085 180.485,416.752 189.5,415.5C 189.5,407.833 189.5,400.167 189.5,392.5C 180.61,393.197 171.943,394.531 163.5,396.5C 147.985,398.669 132.485,401.002 117,403.5C 110.661,403.157 107.994,399.824 109,393.5C 110.543,391.622 112.376,390.122 114.5,389C 131.561,386.244 148.561,383.411 165.5,380.5C 172.518,379.608 179.518,378.608 186.5,377.5C 187.5,377.5 188.5,377.5 189.5,377.5C 189.83,357.326 189.497,337.326 188.5,317.5C 181.997,316.307 175.331,315.307 168.5,314.5C 115.793,300.292 82.6266,266.625 69,213.5C 63.2614,184.537 66.9281,156.87 80,130.5C 82.3167,127.903 85.15,127.07 88.5,128C 113.526,140.18 138.526,152.347 163.5,164.5C 171.707,168.77 180.04,172.77 188.5,176.5C 189.499,134.003 189.832,91.3366 189.5,48.5C 187.585,48.2155 185.919,48.5489 184.5,49.5C 172.268,50.872 160.268,52.872 148.5,55.5C 138.637,56.5602 128.804,57.8935 119,59.5C 114.235,60.0475 111.402,58.0475 110.5,53.5C 109.602,49.4914 111.268,46.6581 115.5,45C 139.502,40.9997 163.502,36.9997 187.5,33C 187.334,19.9823 193.334,11.3156 205.5,7C 302.167,6.33333 398.833,6.33333 495.5,7C 503.35,9.68502 508.684,14.8517 511.5,22.5 Z"/></g>
<g><path style="opacity:1" fill="#f7f5f6" d="M 208.5,22.5 C 283.836,22.1667 359.17,22.5 434.5,23.5C 463.025,84.9696 474.858,149.636 470,217.5C 467.886,261.873 458.386,304.539 441.5,345.5C 377.832,345.333 314.166,345.5 250.5,346C 246.247,349.42 245.413,353.587 248,358.5C 249.33,359.582 250.83,360.249 252.5,360.5C 312.665,361.333 372.999,361.833 433.5,362C 429.672,369.311 425.672,376.478 421.5,383.5C 404.163,383.333 386.83,383.5 369.5,384C 363.241,388.167 362.908,392.833 368.5,398C 369.448,398.483 370.448,398.649 371.5,398.5C 384.327,399.331 397.327,399.831 410.5,400C 398.796,414.705 385.463,427.705 370.5,439C 316.834,439.5 263.168,439.667 209.5,439.5C 206.909,438.746 205.076,437.079 204,434.5C 203.333,298.833 203.333,163.167 204,27.5C 204.996,25.3395 206.496,23.6728 208.5,22.5 Z"/></g>
<g><path style="opacity:1" fill="#e3dfe3" d="M 208.5,22.5 C 255.499,21.8333 302.665,21.5 350,21.5C 397.915,21.3378 445.749,21.8378 493.5,23C 494.701,23.9025 495.535,25.0692 496,26.5C 496.333,87.5 496.667,148.5 497,209.5C 498.542,212.892 501.042,214.892 504.5,215.5C 504.5,221.5 504.5,227.5 504.5,233.5C 501.413,234.053 498.913,235.72 497,238.5C 496.667,304.167 496.333,369.833 496,435.5C 495.07,437.552 493.57,439.052 491.5,440C 397.332,440.832 303.332,440.666 209.5,439.5C 263.168,439.667 316.834,439.5 370.5,439C 385.463,427.705 398.796,414.705 410.5,400C 397.327,399.831 384.327,399.331 371.5,398.5C 397.502,398.667 423.502,398.5 449.5,398C 455.209,394.455 455.875,390.121 451.5,385C 441.605,383.551 431.605,383.051 421.5,383.5C 425.672,376.478 429.672,369.311 433.5,362C 372.999,361.833 312.665,361.333 252.5,360.5C 318.168,360.667 383.834,360.5 449.5,360C 454.434,357.335 455.601,353.502 453,348.5C 449.623,345.987 445.79,344.987 441.5,345.5C 458.386,304.539 467.886,261.873 470,217.5C 474.858,149.636 463.025,84.9696 434.5,23.5C 359.17,22.5 283.836,22.1667 208.5,22.5 Z"/></g>
<g><path style="opacity:1" fill="#fda510" d="M 184.5,49.5 C 185.833,49.5 187.167,49.5 188.5,49.5C 188.5,91.8333 188.5,134.167 188.5,176.5C 180.04,172.77 171.707,168.77 163.5,164.5C 161.192,127.768 156.192,91.4345 148.5,55.5C 160.268,52.872 172.268,50.872 184.5,49.5 Z"/></g>
<g><path style="opacity:1" fill="#714a07" d="M 184.5,49.5 C 185.919,48.5489 187.585,48.2155 189.5,48.5C 189.832,91.3366 189.499,134.003 188.5,176.5C 188.5,134.167 188.5,91.8333 188.5,49.5C 187.167,49.5 185.833,49.5 184.5,49.5 Z"/></g>
<g><path style="opacity:1" fill="#fdc142" d="M 110.5,53.5 C 111.402,58.0475 114.235,60.0475 119,59.5C 128.804,57.8935 138.637,56.5602 148.5,55.5C 156.192,91.4345 161.192,127.768 163.5,164.5C 138.526,152.347 113.526,140.18 88.5,128C 85.15,127.07 82.3167,127.903 80,130.5C 66.9281,156.87 63.2614,184.537 69,213.5C 82.6266,266.625 115.793,300.292 168.5,314.5C 167.541,336.346 166.541,358.346 165.5,380.5C 148.561,383.411 131.561,386.244 114.5,389C 112.376,390.122 110.543,391.622 109,393.5C 107.994,399.824 110.661,403.157 117,403.5C 132.485,401.002 147.985,398.669 163.5,396.5C 164.097,396.735 164.43,397.235 164.5,398C 163.273,405.108 162.606,412.275 162.5,419.5C 148.145,421.804 133.812,424.304 119.5,427C 116.634,428.393 115.301,430.726 115.5,434C 115.236,438.65 117.402,441.15 122,441.5C 134.818,439.336 147.651,437.336 160.5,435.5C 159.325,449.563 157.659,463.563 155.5,477.5C 133.197,481.858 110.697,485.858 88,489.5C 84.196,489.031 81.5293,487.031 80,483.5C 58.5505,351.47 36.8838,219.47 15,87.5C 13.2219,81.9436 15.0552,78.1102 20.5,76C 42.8751,72.5917 65.2085,68.925 87.5,65C 90.3208,62.8587 91.6541,60.0254 91.5,56.5C 97.8138,55.3922 104.147,54.3922 110.5,53.5 Z"/></g>
<g><path style="opacity:1" fill="#040303" d="M 388.5,82.5 C 398.641,82.9862 407.474,86.6529 415,93.5C 418.174,98.0599 419.174,103.06 418,108.5C 415.893,112.381 414.059,116.381 412.5,120.5C 425.19,128.357 435.357,138.69 443,151.5C 444.622,164.697 446.455,177.864 448.5,191C 447.333,226.67 432.666,255.337 404.5,277C 386.303,291.6 365.97,302.266 343.5,309C 308.701,317.517 284.201,305.351 270,272.5C 255.409,236.395 253.742,199.729 265,162.5C 272.974,143.356 285.141,127.523 301.5,115C 305.888,112.139 310.554,109.806 315.5,108C 324.433,98.3555 335.433,94.6888 348.5,97C 356.362,98.049 364.029,99.8823 371.5,102.5C 374.388,95.885 378.388,90.0516 383.5,85C 385.315,84.2432 386.981,83.4098 388.5,82.5 Z"/></g>
<g><path style="opacity:1" fill="#6dd3a0" d="M 398.5,100.5 C 395.073,107.691 391.906,115.024 389,122.5C 387.781,127.898 389.281,132.398 393.5,136C 407.694,142.351 417.028,152.851 421.5,167.5C 418.984,167.245 416.65,166.411 414.5,165C 409.01,159.627 404.01,153.961 399.5,148C 388.954,150.115 379.287,148.115 370.5,142C 366.481,137.584 362.481,133.25 358.5,129C 351.518,129.331 344.518,129.331 337.5,129C 330.815,127.335 327.648,123.169 328,116.5C 331.692,112.768 336.192,111.101 341.5,111.5C 351.839,112.085 361.839,114.251 371.5,118C 375.244,118.929 378.744,118.429 382,116.5C 384.793,110.103 387.96,103.936 391.5,98C 394.242,97.7048 396.575,98.5381 398.5,100.5 Z"/></g>
<g><path style="opacity:1" fill="#3dbfa0" d="M 398.5,100.5 C 400.903,100.695 402.57,101.862 403.5,104C 400.863,109.441 398.363,114.941 396,120.5C 395.333,122.833 395.333,125.167 396,127.5C 402.5,132 409,136.5 415.5,141C 421.465,145.959 426.298,151.792 430,158.5C 431.163,165.172 428.329,168.172 421.5,167.5C 417.028,152.851 407.694,142.351 393.5,136C 389.281,132.398 387.781,127.898 389,122.5C 391.906,115.024 395.073,107.691 398.5,100.5 Z"/></g>
<g><path style="opacity:1" fill="#ea5368" d="M 420.5,182.5 C 417.872,201.747 410.372,218.747 398,233.5C 370.304,263.765 336.137,280.765 295.5,284.5C 285.679,272.602 279.179,258.935 276,243.5C 272.754,226.306 271.754,208.972 273,191.5C 276.586,166.151 288.086,145.317 307.5,129C 309.587,128.208 311.421,127.041 313,125.5C 316.868,133.7 323.035,139.533 331.5,143C 338.449,144.122 345.449,144.789 352.5,145C 363.091,157.868 376.758,164.202 393.5,164C 399.641,174.303 408.641,180.47 420.5,182.5 Z"/></g>
<g><path style="opacity:1" fill="#6dd3a0" d="M 168.5,281.5 C 168.5,287.167 168.5,292.833 168.5,298.5C 124.091,285.923 95.9241,257.256 84,212.5C 79.3129,189.965 80.9796,167.965 89,146.5C 89.414,146.043 89.914,145.709 90.5,145.5C 95.4078,147.443 99.7411,150.11 103.5,153.5C 91.1658,197.99 102.499,235.157 137.5,265C 147.324,271.577 157.657,277.077 168.5,281.5 Z"/></g>
<g><path style="opacity:1" fill="#e95367" d="M 165.5,182.5 C 166.269,194.15 166.602,205.817 166.5,217.5C 168.099,217.232 169.432,217.566 170.5,218.5C 163.801,218.035 160.468,221.202 160.5,228C 160.818,232.994 163.484,235.494 168.5,235.5C 168.5,245.167 168.5,254.833 168.5,264.5C 132.724,249.834 114.391,223 113.5,184C 113.48,178.445 113.98,172.945 115,167.5C 115.315,164.364 116.482,161.697 118.5,159.5C 134.412,166.957 150.079,174.624 165.5,182.5 Z"/></g>
<g><path style="opacity:1" fill="#0d0404" d="M 314.5,166.5 C 320.766,165.117 324.433,167.45 325.5,173.5C 323.443,181.779 318.943,183.446 312,178.5C 309.511,173.757 310.345,169.757 314.5,166.5 Z"/></g>
<g><path style="opacity:1" fill="#e3364d" d="M 295.5,284.5 C 336.137,280.765 370.304,263.765 398,233.5C 410.372,218.747 417.872,201.747 420.5,182.5C 424.791,182.213 428.958,182.213 433,182.5C 434.727,216.541 422.227,244.041 395.5,265C 377.537,279.815 357.204,290.149 334.5,296C 318.974,299.917 305.974,296.084 295.5,284.5 Z"/></g>
<g><path style="opacity:1" fill="#e3364d" d="M 165.5,182.5 C 173.178,185.755 180.678,189.422 188,193.5C 188.5,218.831 188.667,244.164 188.5,269.5C 181.337,269.376 174.67,267.709 168.5,264.5C 168.5,254.833 168.5,245.167 168.5,235.5C 174.684,232.796 176.85,228.129 175,221.5C 173.729,220.117 172.229,219.117 170.5,218.5C 169.432,217.566 168.099,217.232 166.5,217.5C 166.602,205.817 166.269,194.15 165.5,182.5 Z"/></g>
<g><path style="opacity:1" fill="#0b0303" d="M 348.5,189.5 C 356.147,189.313 359.314,192.98 358,200.5C 352.919,205.986 348.252,205.653 344,199.5C 343.077,195.017 344.577,191.683 348.5,189.5 Z"/></g>
<g><path style="opacity:1" fill="#090303" d="M 142.5,195.5 C 151.537,195.026 154.704,199.026 152,207.5C 149.774,211.861 146.274,213.361 141.5,212C 136.045,206.205 136.379,200.705 142.5,195.5 Z"/></g>
<g><path style="opacity:1" fill="#100606" d="M 389.5,200.5 C 397.552,200.962 400.386,204.962 398,212.5C 391.011,218.592 386.511,217.092 384.5,208C 384.782,204.556 386.448,202.056 389.5,200.5 Z"/></g>
<g><path style="opacity:1" fill="#0d0404" d="M 303.5,206.5 C 311.167,205.024 315,208.024 315,215.5C 310.813,223.073 306.146,223.406 301,216.5C 300.024,212.673 300.857,209.34 303.5,206.5 Z"/></g>
<g><path style="opacity:1" fill="#060102" d="M 170.5,218.5 C 172.229,219.117 173.729,220.117 175,221.5C 176.85,228.129 174.684,232.796 168.5,235.5C 163.484,235.494 160.818,232.994 160.5,228C 160.468,221.202 163.801,218.035 170.5,218.5 Z"/></g>
<g><path style="opacity:1" fill="#0d0404" d="M 364.5,232.5 C 371.996,231.174 375.496,234.174 375,241.5C 372.03,248.095 367.697,249.095 362,244.5C 359.523,239.669 360.356,235.669 364.5,232.5 Z"/></g>
<g><path style="opacity:1" fill="#0a0303" d="M 321.5,244.5 C 327.629,243.555 331.296,246.055 332.5,252C 331.296,258.106 327.629,260.439 321.5,259C 316.214,254.169 316.214,249.335 321.5,244.5 Z"/></g>
<g><path style="opacity:1" fill="#3dc0a1" d="M 168.5,281.5 C 174.395,282.927 180.395,283.927 186.5,284.5C 188.379,289.87 189.045,295.537 188.5,301.5C 186.833,301.5 185.167,301.5 183.5,301.5C 178.206,301.375 173.206,300.375 168.5,298.5C 168.5,292.833 168.5,287.167 168.5,281.5 Z"/></g>
<g><path style="opacity:1" fill="#1b5749" d="M 186.5,284.5 C 187.5,284.5 188.5,284.5 189.5,284.5C 189.5,290.5 189.5,296.5 189.5,302.5C 187.265,302.795 185.265,302.461 183.5,301.5C 185.167,301.5 186.833,301.5 188.5,301.5C 189.045,295.537 188.379,289.87 186.5,284.5 Z"/></g>
<g><path style="opacity:1" fill="#fca510" d="M 168.5,314.5 C 175.331,315.307 181.997,316.307 188.5,317.5C 189.136,337.733 188.469,357.733 186.5,377.5C 179.518,378.608 172.518,379.608 165.5,380.5C 166.541,358.346 167.541,336.346 168.5,314.5 Z"/></g>
<g><path style="opacity:1" fill="#724a07" d="M 188.5,317.5 C 189.497,337.326 189.83,357.326 189.5,377.5C 188.5,377.5 187.5,377.5 186.5,377.5C 188.469,357.733 189.136,337.733 188.5,317.5 Z"/></g>
<g><path style="opacity:1" fill="#050505" d="M 441.5,345.5 C 445.79,344.987 449.623,345.987 453,348.5C 455.601,353.502 454.434,357.335 449.5,360C 383.834,360.5 318.168,360.667 252.5,360.5C 250.83,360.249 249.33,359.582 248,358.5C 245.413,353.587 246.247,349.42 250.5,346C 314.166,345.5 377.832,345.333 441.5,345.5 Z"/></g>
<g><path style="opacity:1" fill="#030303" d="M 250.5,383.5 C 277.169,383.333 303.835,383.5 330.5,384C 335.687,386.867 336.854,391.033 334,396.5C 333.25,397.126 332.416,397.626 331.5,398C 304.5,398.667 277.5,398.667 250.5,398C 246.788,395.487 245.622,391.987 247,387.5C 248.376,386.295 249.542,384.962 250.5,383.5 Z"/></g>
<g><path style="opacity:1" fill="#040304" d="M 421.5,383.5 C 431.605,383.051 441.605,383.551 451.5,385C 455.875,390.121 455.209,394.455 449.5,398C 423.502,398.5 397.502,398.667 371.5,398.5C 370.448,398.649 369.448,398.483 368.5,398C 362.908,392.833 363.241,388.167 369.5,384C 386.83,383.5 404.163,383.333 421.5,383.5 Z"/></g>
<g><path style="opacity:1" fill="#f4a010" d="M 162.5,419.5 C 162.606,412.275 163.273,405.108 164.5,398C 164.43,397.235 164.097,396.735 163.5,396.5C 171.943,394.531 180.61,393.197 189.5,392.5C 189.5,400.167 189.5,407.833 189.5,415.5C 180.485,416.752 171.485,418.085 162.5,419.5 Z"/></g>
<g><path style="opacity:1" fill="#fba40f" d="M 184.5,431.5 C 185.833,431.5 187.167,431.5 188.5,431.5C 188.232,433.099 188.566,434.432 189.5,435.5C 191.313,445.311 196.979,451.645 206.5,454.5C 234.5,455.167 262.5,455.833 290.5,456.5C 245.528,463.606 200.528,470.606 155.5,477.5C 157.659,463.563 159.325,449.563 160.5,435.5C 168.268,433.539 176.268,432.205 184.5,431.5 Z"/></g>
<g><path style="opacity:1" fill="#875808" d="M 184.5,431.5 C 185.919,430.549 187.585,430.216 189.5,430.5C 189.5,432.167 189.5,433.833 189.5,435.5C 188.566,434.432 188.232,433.099 188.5,431.5C 187.167,431.5 185.833,431.5 184.5,431.5 Z"/></g>
<g><path style="opacity:1" fill="#563805" d="M 206.5,454.5 C 235.835,454.333 265.169,454.5 294.5,455C 293.255,455.791 291.922,456.291 290.5,456.5C 262.5,455.833 234.5,455.167 206.5,454.5 Z"/></g>
</svg>
