<?xml version="1.0" encoding="UTF-8"?>
<!DOCTYPE svg PUBLIC "-//W3C//DTD SVG 1.1//EN" "http://www.w3.org/Graphics/SVG/1.1/DTD/svg11.dtd">
<svg xmlns="http://www.w3.org/2000/svg" version="1.1" width="512px" height="512px" style="shape-rendering:geometricPrecision; text-rendering:geometricPrecision; image-rendering:optimizeQuality; fill-rule:evenodd; clip-rule:evenodd" xmlns:xlink="http://www.w3.org/1999/xlink">
<g><path style="opacity:0.999" fill="#f8f6f7" d="M 434.5,6.5 C 460.351,56.2265 474.517,109.226 477,165.5C 480.079,228.791 469.913,289.791 446.5,348.5C 381.166,348.333 315.832,348.5 250.5,349C 245.566,351.665 244.399,355.498 247,360.5C 248.129,362.141 249.629,363.141 251.5,363.5C 313.668,364.167 376.001,364.833 438.5,365.5C 434.873,373.103 430.873,380.437 426.5,387.5C 408.497,387.333 390.497,387.5 372.5,388C 367.566,390.665 366.399,394.498 369,399.5C 370.129,401.141 371.629,402.141 373.5,402.5C 387.006,403.167 400.673,403.833 414.5,404.5C 399.573,424.437 381.573,440.77 360.5,453.5C 308.832,453.667 257.166,453.5 205.5,453C 197.352,449.542 193.685,443.375 194.5,434.5C 194.5,429.5 194.5,424.5 194.5,419.5C 194.5,411.5 194.5,403.5 194.5,395.5C 194.5,390.167 194.5,384.833 194.5,379.5C 194.5,356.833 194.5,334.167 194.5,311.5C 194.5,300.5 194.5,289.5 194.5,278.5C 194.5,247.833 194.5,217.167 194.5,186.5C 194.5,135.167 194.5,83.8333 194.5,32.5C 194.139,26.4067 194.639,20.4067 196,14.5C 198.087,10.6978 201.254,8.19784 205.5,7C 281.833,6.5 358.166,6.33334 434.5,6.5 Z"/></g>
<g><path style="opacity:1" fill="#e4e0e4" d="M 434.5,6.5 C 456.503,6.33337 478.503,6.50004 500.5,7C 505.594,8.59916 509.261,11.7658 511.5,16.5C 511.5,158.833 511.5,301.167 511.5,443.5C 509.353,447.811 506.02,450.978 501.5,453C 459.501,453.5 417.501,453.667 375.5,453.5C 370.5,453.5 365.5,453.5 360.5,453.5C 381.573,440.77 399.573,424.437 414.5,404.5C 400.673,403.833 387.006,403.167 373.5,402.5C 401.169,402.667 428.835,402.5 456.5,402C 461.313,397.959 461.646,393.625 457.5,389C 447.246,387.574 436.912,387.074 426.5,387.5C 430.873,380.437 434.873,373.103 438.5,365.5C 376.001,364.833 313.668,364.167 251.5,363.5C 319.834,363.667 388.167,363.5 456.5,363C 462.062,357.837 461.729,353.171 455.5,349C 452.518,348.502 449.518,348.335 446.5,348.5C 469.913,289.791 480.079,228.791 477,165.5C 474.517,109.226 460.351,56.2265 434.5,6.5 Z"/></g>
<g><path style="opacity:1" fill="#fda610" d="M 194.5,32.5 C 194.5,83.8333 194.5,135.167 194.5,186.5C 183.838,181.502 173.171,176.502 162.5,171.5C 162.5,170.833 162.167,170.5 161.5,170.5C 158.491,127.061 152.491,84.0615 143.5,41.5C 160.457,38.3959 177.457,35.3959 194.5,32.5 Z"/></g>
<g><path style="opacity:0.996" fill="#fec143" d="M 143.5,41.5 C 152.491,84.0615 158.491,127.061 161.5,170.5C 144.162,162.164 126.829,153.831 109.5,145.5C 100.072,140.703 90.5724,136.036 81,131.5C 61.4534,175.327 64.7867,217.327 91,257.5C 109.562,283.53 134.395,300.196 165.5,307.5C 165.5,307.833 165.5,308.167 165.5,308.5C 164.912,333.836 164.245,359.169 163.5,384.5C 145.816,387.114 128.149,389.947 110.5,393C 105.076,395.017 103.242,398.85 105,404.5C 106.633,407.148 108.967,408.481 112,408.5C 128.466,405.561 144.966,402.894 161.5,400.5C 161.052,408.52 160.385,416.52 159.5,424.5C 144.866,427.106 130.199,429.606 115.5,432C 109.271,436.171 108.938,440.837 114.5,446C 128.926,445.041 143.259,443.208 157.5,440.5C 155.634,458.23 153.301,475.896 150.5,493.5C 128.079,497.542 105.579,501.209 83,504.5C 76.137,504.57 71.137,501.57 68,495.5C 45.1462,359.044 22.3129,222.71 -0.5,86.5C -0.5,81.8333 -0.5,77.1667 -0.5,72.5C 1.81949,67.3604 5.81949,64.1937 11.5,63C 55.4573,55.5071 99.4573,48.3404 143.5,41.5 Z"/></g>
<g><path style="opacity:1" fill="#70d6a3" d="M 406.5,88.5 C 402.347,97.4738 398.181,106.474 394,115.5C 391.09,122.466 392.59,128.299 398.5,133C 415.624,140.767 425.29,153.933 427.5,172.5C 421.378,172.272 416.044,170.105 411.5,166C 407.257,161.592 403.591,156.759 400.5,151.5C 382.653,154.576 368.986,148.409 359.5,133C 353.195,133.424 346.862,133.424 340.5,133C 327.473,130.832 321.473,123.332 322.5,110.5C 325.685,104.561 330.685,101.061 337.5,100C 342.5,99.3333 347.5,99.3333 352.5,100C 361.323,101.539 369.99,103.706 378.5,106.5C 379.167,106.167 379.833,105.833 380.5,105.5C 383.273,100.287 385.773,94.9539 388,89.5C 393.806,84.564 399.972,84.2307 406.5,88.5 Z"/></g>
<g><path style="opacity:1" fill="#41c3a4" d="M 406.5,88.5 C 413.984,90.7959 416.817,95.7959 415,103.5C 412.227,108.713 409.727,114.046 407.5,119.5C 419.315,125.814 429.481,134.147 438,144.5C 443.123,150.978 444.29,157.978 441.5,165.5C 438.225,170.471 433.558,172.804 427.5,172.5C 425.29,153.933 415.624,140.767 398.5,133C 392.59,128.299 391.09,122.466 394,115.5C 398.181,106.474 402.347,97.4738 406.5,88.5 Z"/></g>
<g><path style="opacity:1" fill="#ec5469" d="M 322.5,110.5 C 321.473,123.332 327.473,130.832 340.5,133C 346.862,133.424 353.195,133.424 359.5,133C 368.986,148.409 382.653,154.576 400.5,151.5C 403.591,156.759 407.257,161.592 411.5,166C 416.044,170.105 421.378,172.272 427.5,172.5C 423.553,206.235 407.886,233.068 380.5,253C 365.116,264.861 348.116,273.861 329.5,280C 319.088,283.514 308.421,284.847 297.5,284C 292.921,283.185 288.587,281.685 284.5,279.5C 283.893,279.624 283.56,279.957 283.5,280.5C 270.143,257.395 264.143,232.395 265.5,205.5C 265.082,170.51 278.082,141.677 304.5,119C 309.866,114.817 315.866,111.983 322.5,110.5 Z"/></g>
<g><path style="opacity:1" fill="#70d6a2" d="M 109.5,145.5 C 93.1559,187.95 101.489,224.783 134.5,256C 143.92,263.379 154.253,269.212 165.5,273.5C 165.5,284.833 165.5,296.167 165.5,307.5C 134.395,300.196 109.562,283.53 91,257.5C 64.7867,217.327 61.4534,175.327 81,131.5C 90.5724,136.036 100.072,140.703 109.5,145.5 Z"/></g>
<g><path style="opacity:1" fill="#eb5469" d="M 109.5,145.5 C 126.829,153.831 144.162,162.164 161.5,170.5C 162.167,170.5 162.5,170.833 162.5,171.5C 162.834,186.52 163.501,201.52 164.5,216.5C 165.791,216.263 166.791,216.596 167.5,217.5C 160.801,217.035 157.468,220.202 157.5,227C 157.682,232.769 160.682,235.269 166.5,234.5C 165.52,247.421 165.186,260.421 165.5,273.5C 154.253,269.212 143.92,263.379 134.5,256C 101.489,224.783 93.1559,187.95 109.5,145.5 Z"/></g>
<g><path style="opacity:1" fill="#feba84" d="M 316.5,163.5 C 326.554,163.379 329.554,167.879 325.5,177C 315.961,180.66 311.794,177.493 313,167.5C 314.376,166.295 315.542,164.962 316.5,163.5 Z"/></g>
<g><path style="opacity:1" fill="#e5384f" d="M 441.5,165.5 C 445.577,173.218 447.244,181.551 446.5,190.5C 445.824,213.698 438.324,234.365 424,252.5C 401.572,277.132 374.406,294.299 342.5,304C 316.761,310.929 297.094,303.095 283.5,280.5C 283.56,279.957 283.893,279.624 284.5,279.5C 288.587,281.685 292.921,283.185 297.5,284C 308.421,284.847 319.088,283.514 329.5,280C 348.116,273.861 365.116,264.861 380.5,253C 407.886,233.068 423.553,206.235 427.5,172.5C 433.558,172.804 438.225,170.471 441.5,165.5 Z"/></g>
<g><path style="opacity:1" fill="#e4374e" d="M 162.5,171.5 C 173.171,176.502 183.838,181.502 194.5,186.5C 194.5,217.167 194.5,247.833 194.5,278.5C 184.578,278.235 174.911,276.569 165.5,273.5C 165.186,260.421 165.52,247.421 166.5,234.5C 173.042,231.089 174.709,226.089 171.5,219.5C 170.423,218.295 169.09,217.628 167.5,217.5C 166.791,216.596 165.791,216.263 164.5,216.5C 163.501,201.52 162.834,186.52 162.5,171.5 Z"/></g>
<g><path style="opacity:1" fill="#feba84" d="M 350.5,187.5 C 361.566,187.729 364.233,192.562 358.5,202C 349.556,204.055 345.723,200.555 347,191.5C 348.376,190.295 349.542,188.962 350.5,187.5 Z"/></g>
<g><path style="opacity:1" fill="#44595a" d="M 139.5,193.5 C 149.752,193.671 152.585,198.337 148,207.5C 141.031,213.447 136.198,211.947 133.5,203C 134.64,199.203 136.64,196.037 139.5,193.5 Z"/></g>
<g><path style="opacity:1" fill="#feba84" d="M 392.5,199.5 C 400.161,198.663 403.661,201.996 403,209.5C 400.928,214.143 397.428,215.643 392.5,214C 388.788,211.487 387.622,207.987 389,203.5C 389.69,201.65 390.856,200.316 392.5,199.5 Z"/></g>
<g><path style="opacity:1" fill="#feb884" d="M 306.5,204.5 C 314.986,204.161 318.152,208.161 316,216.5C 310.359,222.304 305.692,221.637 302,214.5C 301.077,210.017 302.577,206.683 306.5,204.5 Z"/></g>
<g><path style="opacity:1" fill="#41585a" d="M 167.5,217.5 C 169.09,217.628 170.423,218.295 171.5,219.5C 174.709,226.089 173.042,231.089 166.5,234.5C 160.682,235.269 157.682,232.769 157.5,227C 157.468,220.202 160.801,217.035 167.5,217.5 Z"/></g>
<g><path style="opacity:1" fill="#feb984" d="M 367.5,231.5 C 374.067,230.097 377.733,232.597 378.5,239C 377.994,246.053 374.328,248.386 367.5,246C 362.232,241.171 362.232,236.337 367.5,231.5 Z"/></g>
<g><path style="opacity:1" fill="#feb984" d="M 323.5,244.5 C 331.494,243.329 334.994,246.663 334,254.5C 331.928,259.143 328.428,260.643 323.5,259C 319.788,256.487 318.622,252.987 320,248.5C 320.69,246.65 321.856,245.316 323.5,244.5 Z"/></g>
<g><path style="opacity:1" fill="#40c3a3" d="M 165.5,273.5 C 174.911,276.569 184.578,278.235 194.5,278.5C 194.5,289.5 194.5,300.5 194.5,311.5C 184.68,311.868 175.013,310.868 165.5,308.5C 165.5,308.167 165.5,307.833 165.5,307.5C 165.5,296.167 165.5,284.833 165.5,273.5 Z"/></g>
<g><path style="opacity:1" fill="#fda610" d="M 165.5,308.5 C 175.013,310.868 184.68,311.868 194.5,311.5C 194.5,334.167 194.5,356.833 194.5,379.5C 184.147,381.059 173.814,382.726 163.5,384.5C 164.245,359.169 164.912,333.836 165.5,308.5 Z"/></g>
<g><path style="opacity:1" fill="#3d595a" d="M 446.5,348.5 C 449.518,348.335 452.518,348.502 455.5,349C 461.729,353.171 462.062,357.837 456.5,363C 388.167,363.5 319.834,363.667 251.5,363.5C 249.629,363.141 248.129,362.141 247,360.5C 244.399,355.498 245.566,351.665 250.5,349C 315.832,348.5 381.166,348.333 446.5,348.5 Z"/></g>
<g><path style="opacity:1" fill="#405a59" d="M 194.5,379.5 C 194.5,384.833 194.5,390.167 194.5,395.5C 183.415,396.594 172.415,398.261 161.5,400.5C 144.966,402.894 128.466,405.561 112,408.5C 108.967,408.481 106.633,407.148 105,404.5C 103.242,398.85 105.076,395.017 110.5,393C 128.149,389.947 145.816,387.114 163.5,384.5C 173.814,382.726 184.147,381.059 194.5,379.5 Z"/></g>
<g><path style="opacity:1" fill="#3d595a" d="M 250.5,387.5 C 278.169,387.333 305.835,387.5 333.5,388C 339.729,392.171 340.062,396.837 334.5,402C 306.167,402.667 277.833,402.667 249.5,402C 244.003,396.683 244.336,391.85 250.5,387.5 Z"/></g>
<g><path style="opacity:1" fill="#3d595a" d="M 426.5,387.5 C 436.912,387.074 447.246,387.574 457.5,389C 461.646,393.625 461.313,397.959 456.5,402C 428.835,402.5 401.169,402.667 373.5,402.5C 371.629,402.141 370.129,401.141 369,399.5C 366.399,394.498 367.566,390.665 372.5,388C 390.497,387.5 408.497,387.333 426.5,387.5 Z"/></g>
<g><path style="opacity:1" fill="#fba512" d="M 194.5,395.5 C 194.5,403.5 194.5,411.5 194.5,419.5C 182.859,421.238 171.193,422.905 159.5,424.5C 160.385,416.52 161.052,408.52 161.5,400.5C 172.415,398.261 183.415,396.594 194.5,395.5 Z"/></g>
<g><path style="opacity:1" fill="#405a59" d="M 194.5,419.5 C 194.5,424.5 194.5,429.5 194.5,434.5C 182.145,436.392 169.812,438.392 157.5,440.5C 143.259,443.208 128.926,445.041 114.5,446C 108.938,440.837 109.271,436.171 115.5,432C 130.199,429.606 144.866,427.106 159.5,424.5C 171.193,422.905 182.859,421.238 194.5,419.5 Z"/></g>
<g><path style="opacity:1" fill="#fda611" d="M 194.5,434.5 C 193.685,443.375 197.352,449.542 205.5,453C 257.166,453.5 308.832,453.667 360.5,453.5C 365.5,453.5 370.5,453.5 375.5,453.5C 373.351,455.746 370.684,457.246 367.5,458C 295.156,469.835 222.823,481.668 150.5,493.5C 153.301,475.896 155.634,458.23 157.5,440.5C 169.812,438.392 182.145,436.392 194.5,434.5 Z"/></g>
</svg>
